<svg width="25" height="25" viewBox="0 0 25 25" fill="none" xmlns="http://www.w3.org/2000/svg">
<g >
<path  d="M12.9865 24.2755L12.9852 24.2755C11.4763 24.2796 9.98127 23.9802 8.586 23.3943C7.1907 22.8084 5.9224 21.9474 4.85418 20.8604C3.78594 19.7735 2.93888 18.4819 2.36213 17.0598C1.78538 15.6376 1.49044 14.1132 1.49443 12.5742V12.5729C1.49443 10.2564 2.1695 7.99263 3.43338 6.06791C4.69719 4.14328 6.49266 2.64453 8.59161 1.75986C10.6904 0.875233 12.9994 0.643959 15.2269 1.09482C17.4545 1.54569 19.5019 2.65885 21.1097 4.29485C22.7176 5.93095 23.8134 8.01649 24.2575 10.2882C24.7016 12.56 24.4737 14.9147 23.6028 17.0542C22.7319 19.1936 21.2577 21.0207 19.3679 22.3056C17.4783 23.5904 15.2575 24.2755 12.9865 24.2755Z" fill="url(#paint0_radial)" stroke="#FFCE35"/>
<path d="M12.8371 19.5258C14.1861 19.5258 15.5049 19.1153 16.6266 18.346C17.7483 17.5768 18.6225 16.4835 19.1388 15.2044C19.655 13.9252 19.7901 12.5177 19.5269 11.1597C19.2637 9.80179 18.6141 8.55445 17.6602 7.57543C16.7063 6.59641 15.4909 5.92967 14.1678 5.65956C12.8446 5.38945 11.4732 5.52805 10.2269 6.0579C8.98052 6.58774 7.91519 7.485 7.16571 8.63621C6.41622 9.78741 6.0162 11.1409 6.0162 12.5254C6.01384 13.4454 6.18864 14.3568 6.53058 15.2072C6.87253 16.0577 7.37487 16.8303 8.00871 17.4809C8.64256 18.1314 9.39541 18.6469 10.224 18.9979C11.0526 19.3488 11.9407 19.5282 12.8371 19.5258Z" fill="#FFCE35"/>
</g>
<defs>
<radialGradient id="paint0_radial" cx="0" cy="0" r="1" gradientUnits="userSpaceOnUse" gradientTransform="translate(12.9865 12.5729) rotate(90) scale(12.2027 11.9921)">
<stop stop-color="#FFCB05" stop-opacity="0"/>
<stop offset="1" stop-color="#FFCB05" stop-opacity="0.33"/>
</radialGradient>
</defs>
</svg>
